<?xml version="1.0" encoding="utf-8"?>
<!-- Generator: Adobe Illustrator 19.0.0, SVG Export Plug-In . SVG Version: 6.00 Build 0)  -->
<svg version="1.1" id="Layer_1" xmlns="http://www.w3.org/2000/svg" xmlns:xlink="http://www.w3.org/1999/xlink" x="0px" y="0px"
	 viewBox="0 0 650 600" style="enable-background:new 0 0 650 600;" xml:space="preserve">
<style type="text/css">
	.st0{fill:#00203F;}
	.st1{fill:#00203F;stroke:#00203F;stroke-miterlimit:10;}
</style>
<g id="XMLID_1_">
	<path id="XMLID_6_" class="st0" d="M110.4,280c-1.7,0.2-3.1,0.4-4.3,0.7c-1.2,0.2-2.5,0.5-4,0.9c-1.7,0.5-2.8,1.3-3.3,2.6
		c-0.5,1.2-0.7,2.6-0.7,4.2v51.2c0,4.7-0.9,9-2.8,13s-4.4,7.2-7.6,9.9c-3.3,2.6-6.9,4.6-10.9,5.9c-4,1.3-8.3,2-12.9,2
		c-7.9,0-14.3-2-19.1-5.9c-4.8-3.9-7.3-9.3-7.3-16.1c0-4.1,1.1-7.4,3.3-10.1c2.2-2.7,5.3-4,9.2-4c3.7,0,6.6,1.1,8.8,3.3
		c2.2,2.2,3.3,5,3.3,8.2c0,2.8-0.9,5.4-2.8,7.7c-1.9,2.4-4,4.6-6.4,6.6v0.8c0.4,0.9,1.2,1.6,2.5,2.2c1.3,0.6,2.6,0.9,3.9,0.9
		c5.1,0,9.1-1.9,12-5.6c2.9-3.8,4.4-9.4,4.4-17V289c0-1.6-0.2-2.9-0.7-3.9c-0.5-1-1.6-2-3.4-2.7c-1.3-0.6-2.8-1-4.6-1.4
		s-3.3-0.7-4.5-0.9v-5.1h48.1V280z"/>
	<path id="XMLID_9_" class="st0" d="M234.8,280c-1.2,0.1-3,0.4-5.3,0.9c-2.3,0.5-4.2,1.3-5.8,2.4c-1.6,1.1-2.7,3.1-3.4,5.9
		c-0.7,2.8-1,7.1-1,12.7v34.5c0,10.2-3.3,18.3-10,24.5c-6.7,6.2-15.5,9.3-26.5,9.3c-12.8,0-22.7-3-29.8-9c-7-6-10.5-14.3-10.5-25
		v-47.5c0-1.5-0.3-2.8-0.9-3.9c-0.6-1.1-1.7-2.1-3.3-2.9c-1.1-0.6-2.5-1-4.1-1.4c-1.6-0.3-2.9-0.6-3.9-0.7v-5h47.2v5
		c-1.4,0.1-2.7,0.3-4.1,0.5c-1.4,0.2-2.8,0.6-4.3,1.1c-1.6,0.5-2.7,1.4-3.2,2.6c-0.6,1.2-0.8,2.6-0.8,4.1V335c0,9.2,2,15.9,5.9,20.1
		c3.9,4.2,9.6,6.3,17.1,6.3c7.4,0,13.1-2.3,17.3-6.9c4.2-4.6,6.3-11.4,6.3-20.4v-31.4c0-5.6-0.4-9.8-1.1-12.5
		c-0.7-2.8-1.9-4.8-3.4-6c-1.1-1-3-1.8-5.7-2.6s-4.6-1.3-5.7-1.4v-5.1h39.1V280z"/>
	<path id="XMLID_11_" class="st0" d="M337.2,338l-1.8,29.7h-83v-5.1c1.5-0.1,3.2-0.3,5.2-0.6c2-0.3,3.3-0.6,3.9-0.8
		c1.5-0.6,2.6-1.5,3.2-2.5c0.6-1.1,0.9-2.5,0.9-4.2V289c0-1.6-0.2-2.9-0.7-3.9c-0.5-1-1.6-2-3.4-2.8c-1.3-0.6-2.9-1.1-4.7-1.5
		c-1.8-0.4-3.3-0.6-4.4-0.8v-5.1h49.4v5.1c-1.4,0.1-3,0.3-4.8,0.6c-1.8,0.2-3.4,0.6-4.8,1c-1.7,0.6-2.8,1.4-3.3,2.6
		c-0.6,1.2-0.8,2.6-0.8,4.1v61c0,2.9,0.2,5.1,0.6,6.8c0.4,1.7,1.1,2.9,2.2,3.7c1.1,0.8,2.6,1.4,4.6,1.6c2,0.2,4.7,0.4,8.2,0.4
		c3.4,0,6.7-0.2,9.9-0.6s5.5-1.3,6.9-2.7c2.2-2.2,4.4-5.3,6.6-9.4c2.3-4,4.1-7.7,5.4-11.1H337.2z"/>
	<path id="XMLID_14_" class="st0" d="M404.2,367.7h-50v-5.1c1.1-0.1,2.8-0.2,5-0.4c2.2-0.2,3.8-0.4,4.6-0.8c1.6-0.7,2.6-1.5,3.2-2.6
		c0.6-1.1,0.9-2.4,0.9-4.1V289c0-1.5-0.3-2.8-0.8-3.9c-0.6-1.1-1.6-2-3.2-2.7c-1-0.4-2.5-0.9-4.5-1.3c-2-0.5-3.7-0.8-5.1-0.9v-5.1
		h50v5.1c-1.3,0.1-2.9,0.3-4.8,0.6c-1.9,0.2-3.5,0.6-4.8,1c-1.7,0.6-2.8,1.4-3.3,2.6c-0.6,1.2-0.8,2.6-0.8,4.1V354
		c0,1.6,0.3,2.9,0.9,4c0.6,1.1,1.7,2,3.3,2.7c0.9,0.4,2.4,0.8,4.4,1.1c2.1,0.4,3.8,0.6,5.2,0.7V367.7z"/>
	<path id="XMLID_16_" class="st0" d="M495.2,280c-1.7,0.2-3.1,0.4-4.3,0.7c-1.2,0.2-2.5,0.5-4,0.9c-1.7,0.5-2.8,1.3-3.3,2.6
		c-0.5,1.2-0.7,2.6-0.7,4.2v51.2c0,4.7-0.9,9-2.8,13c-1.8,3.9-4.4,7.2-7.6,9.9c-3.3,2.6-6.9,4.6-10.9,5.9c-4,1.3-8.3,2-12.9,2
		c-7.9,0-14.3-2-19.1-5.9c-4.8-3.9-7.3-9.3-7.3-16.1c0-4.1,1.1-7.4,3.3-10.1c2.2-2.7,5.3-4,9.2-4c3.7,0,6.6,1.1,8.8,3.3
		s3.3,5,3.3,8.2c0,2.8-0.9,5.4-2.8,7.7c-1.9,2.4-4,4.6-6.4,6.6v0.8c0.4,0.9,1.2,1.6,2.5,2.2c1.3,0.6,2.6,0.9,3.9,0.9
		c5.1,0,9.1-1.9,12-5.6c2.9-3.8,4.4-9.4,4.4-17V289c0-1.6-0.2-2.9-0.7-3.9c-0.5-1-1.6-2-3.4-2.7c-1.3-0.6-2.8-1-4.6-1.4
		c-1.8-0.4-3.3-0.7-4.5-0.9v-5.1h48.1V280z"/>
	<path id="XMLID_18_" class="st0" d="M613.7,367.7h-49.1v-5.1c2.3-0.2,5-0.6,8-1.3c3.1-0.7,4.6-1.5,4.6-2.5c0-0.3,0-0.7-0.1-1.2
		s-0.2-1-0.5-1.8l-7.7-19.2h-31.1c-0.7,1.8-1.5,3.9-2.4,6.3c-0.9,2.4-1.6,4.5-2.2,6.4c-0.8,2.4-1.3,4.2-1.4,5.3
		c-0.1,1.1-0.2,1.9-0.2,2.3c0,1.4,1,2.6,3.1,3.6c2.1,1,5.5,1.7,10.2,2.1v5.1H508v-5.1c1.4-0.1,3-0.3,4.7-0.7
		c1.8-0.4,3.1-0.9,4.2-1.5c1.7-1,3.2-2.3,4.4-3.9c1.2-1.5,2.2-3.3,3-5.4c4.9-12.2,9.8-24.5,14.8-36.8c4.9-12.3,10.4-25.8,16.3-40.7
		h12.7c8.3,21,14.8,37.6,19.5,49.8c4.7,12.2,8.7,22.3,12,30.3c0.5,1.3,1.2,2.5,2.1,3.6c0.8,1.1,2.1,2.1,3.6,3
		c1.2,0.7,2.6,1.2,4.1,1.6c1.6,0.3,3,0.6,4.3,0.7V367.7z M566.4,330.2l-13-33.5l-12.8,33.5H566.4z"/>
	<path id="XMLID_21_" class="st0" d="M58.6,457.7H36.2v-2.4c0.5,0,1.2-0.1,2.1-0.2c0.9-0.1,1.6-0.2,1.9-0.4c0.7-0.3,1.2-0.7,1.5-1.2
		c0.3-0.5,0.4-1.1,0.4-1.9V437H24.4v14.4c0,0.7,0.1,1.3,0.4,1.8c0.3,0.5,0.8,1,1.5,1.3c0.4,0.2,1,0.3,1.9,0.5
		c0.9,0.2,1.6,0.3,2.2,0.3v2.4H7.9v-2.4c0.5,0,1.2-0.1,2.2-0.2c0.9-0.1,1.6-0.2,2.1-0.4c0.7-0.3,1.2-0.7,1.5-1.2
		c0.3-0.5,0.4-1.2,0.4-1.9v-30.3c0-0.7-0.1-1.3-0.4-1.8c-0.2-0.5-0.7-0.9-1.5-1.3c-0.6-0.3-1.3-0.5-2.2-0.7c-0.9-0.2-1.6-0.3-2-0.4
		v-2.4h22.5v2.4c-0.6,0-1.3,0.1-2.2,0.3c-0.8,0.2-1.5,0.3-1.9,0.5c-0.8,0.3-1.3,0.7-1.5,1.3c-0.2,0.6-0.4,1.2-0.4,1.8v12.8h17.8
		v-12.5c0-0.7-0.1-1.3-0.4-1.8c-0.3-0.5-0.8-0.9-1.5-1.3c-0.5-0.2-1.2-0.5-2-0.7c-0.8-0.2-1.5-0.3-2-0.4v-2.4h22.5v2.4
		c-0.6,0-1.3,0.1-2.1,0.3c-0.8,0.1-1.5,0.3-2.1,0.5c-0.7,0.3-1.2,0.7-1.5,1.2c-0.3,0.6-0.4,1.2-0.4,1.8v30.3c0,0.7,0.1,1.3,0.4,1.8
		c0.3,0.5,0.8,0.9,1.5,1.3c0.5,0.2,1.1,0.4,2,0.5c0.9,0.2,1.6,0.3,2.2,0.3V457.7z"/>
	<path id="XMLID_23_" class="st0" d="M107.1,419.6c2.1,1.9,3.7,4.3,4.9,7c1.2,2.7,1.8,5.9,1.8,9.4c0,3.1-0.5,6.1-1.5,8.9
		c-1,2.8-2.5,5.2-4.4,7.3c-2,2.1-4.4,3.8-7.1,4.9c-2.7,1.2-5.9,1.8-9.7,1.8c-3,0-5.9-0.5-8.6-1.5c-2.7-1-5.1-2.5-7.1-4.5
		c-2-1.9-3.6-4.2-4.8-7c-1.2-2.7-1.8-5.8-1.8-9.1c0-3.5,0.6-6.7,1.7-9.5c1.2-2.8,2.8-5.3,4.8-7.3c2-2,4.4-3.5,7.2-4.6
		c2.8-1.1,5.7-1.6,8.8-1.6c3.1,0,6,0.5,8.7,1.6S105.1,417.8,107.1,419.6z M99.6,450.3c0.9-1.8,1.5-3.9,1.9-6.2
		c0.4-2.3,0.6-4.9,0.6-7.9c0-2.5-0.2-4.9-0.5-7.2c-0.3-2.3-0.9-4.4-1.7-6.3c-0.8-1.8-2-3.3-3.3-4.4c-1.4-1.1-3.1-1.7-5.2-1.7
		c-3.5,0-6.2,1.7-8.1,5.2c-1.8,3.5-2.8,8.3-2.8,14.6c0,2.7,0.2,5.2,0.6,7.6c0.4,2.4,1,4.5,1.9,6.2c0.9,1.8,2,3.2,3.3,4.2
		s3,1.5,5,1.5c1.9,0,3.6-0.5,5-1.5C97.6,453.4,98.8,452,99.6,450.3z"/>
	<path id="XMLID_26_" class="st0" d="M163,444l-0.8,13.7h-38.3v-2.4c0.7-0.1,1.5-0.2,2.4-0.3c0.9-0.1,1.5-0.3,1.8-0.4
		c0.7-0.3,1.2-0.7,1.5-1.2c0.3-0.5,0.4-1.1,0.4-1.9v-30.2c0-0.7-0.1-1.3-0.3-1.8c-0.2-0.5-0.7-0.9-1.6-1.3c-0.6-0.3-1.3-0.5-2.2-0.7
		c-0.8-0.2-1.5-0.3-2-0.4v-2.4h22.8v2.4c-0.6,0.1-1.4,0.1-2.2,0.3s-1.6,0.3-2.2,0.5c-0.8,0.3-1.3,0.7-1.5,1.2
		c-0.3,0.6-0.4,1.2-0.4,1.9v28.2c0,1.3,0.1,2.4,0.3,3.1s0.5,1.3,1,1.7c0.5,0.4,1.2,0.6,2.1,0.7c0.9,0.1,2.2,0.2,3.8,0.2
		c1.6,0,3.1-0.1,4.6-0.3c1.5-0.2,2.5-0.6,3.2-1.3c1-1,2-2.5,3.1-4.3c1-1.9,1.9-3.6,2.5-5.1H163z"/>
	<path id="XMLID_28_" class="st0" d="M193.9,457.7h-23.1v-2.4c0.5,0,1.3-0.1,2.3-0.2c1-0.1,1.7-0.2,2.1-0.4c0.7-0.3,1.2-0.7,1.5-1.2
		c0.3-0.5,0.4-1.1,0.4-1.9v-30.4c0-0.7-0.1-1.3-0.4-1.8c-0.3-0.5-0.8-0.9-1.5-1.3c-0.5-0.2-1.2-0.4-2.1-0.6
		c-0.9-0.2-1.7-0.4-2.4-0.4v-2.4h23.1v2.4c-0.6,0.1-1.3,0.1-2.2,0.3s-1.6,0.3-2.2,0.5c-0.8,0.3-1.3,0.7-1.5,1.2
		c-0.3,0.6-0.4,1.2-0.4,1.9v30.3c0,0.7,0.1,1.3,0.4,1.9c0.3,0.5,0.8,0.9,1.5,1.3c0.4,0.2,1.1,0.4,2,0.5c0.9,0.2,1.7,0.3,2.4,0.3
		V457.7z"/>
	<path id="XMLID_30_" class="st0" d="M241.2,419.3c2.5,1.7,4.6,4,6.2,6.8c1.6,2.8,2.3,6.3,2.3,10.5c0,3.6-0.7,6.8-2.1,9.5
		c-1.4,2.7-3.2,4.9-5.6,6.6c-2.3,1.7-5,3-8,3.8c-3,0.8-6.1,1.3-9.4,1.3h-20.9v-2.4c0.6,0,1.4-0.1,2.3-0.2c0.9-0.1,1.6-0.2,1.9-0.4
		c0.7-0.3,1.2-0.7,1.5-1.2c0.3-0.5,0.4-1.1,0.4-1.9v-30.4c0-0.7-0.1-1.3-0.4-1.9c-0.3-0.6-0.8-1-1.5-1.3c-0.7-0.3-1.5-0.6-2.4-0.7
		c-0.8-0.1-1.5-0.2-1.9-0.2v-2.4h22.1c2.4,0,4.9,0.3,7.6,0.9C236.1,416.4,238.7,417.6,241.2,419.3z M235.2,450
		c1-1.6,1.7-3.5,2.1-5.7c0.4-2.2,0.7-4.8,0.7-7.7c0-2.8-0.3-5.4-0.9-7.8s-1.4-4.3-2.6-6c-1.1-1.6-2.5-2.9-4.2-3.8
		c-1.7-0.9-3.6-1.4-5.8-1.4c-0.7,0-1.5,0-2.3,0c-0.9,0-1.5,0.1-1.9,0.1v32.5c0,0.7,0.1,1.4,0.3,1.9c0.2,0.6,0.5,1,1,1.5
		c0.4,0.4,1,0.8,1.7,1c0.7,0.2,1.5,0.3,2.6,0.3c2.2,0,4.1-0.4,5.7-1.3C233,452.8,234.3,451.6,235.2,450z"/>
	<path id="XMLID_35_" class="st0" d="M304.9,457.7h-22.6v-2.4c1.1-0.1,2.3-0.3,3.7-0.6c1.4-0.3,2.1-0.7,2.1-1.2c0-0.2,0-0.3,0-0.5
		c0-0.2-0.1-0.5-0.2-0.8l-3.5-8.9h-14.4c-0.3,0.8-0.7,1.8-1.1,2.9c-0.4,1.1-0.7,2.1-1,3c-0.4,1.1-0.6,1.9-0.7,2.4s-0.1,0.9-0.1,1.1
		c0,0.6,0.5,1.2,1.4,1.6c0.9,0.5,2.5,0.8,4.7,1v2.4h-17.1v-2.4c0.6,0,1.4-0.1,2.2-0.3c0.8-0.2,1.5-0.4,1.9-0.7
		c0.8-0.5,1.5-1.1,2-1.8s1-1.5,1.4-2.5c2.3-5.7,4.5-11.3,6.8-17s4.8-11.9,7.5-18.8h5.9c3.8,9.7,6.8,17.4,9,23s4,10.3,5.5,14
		c0.3,0.6,0.6,1.2,1,1.6c0.4,0.5,0.9,1,1.7,1.4c0.5,0.3,1.2,0.6,1.9,0.7s1.4,0.3,2,0.3V457.7z M283.1,440.4l-6-15.5l-5.9,15.5H283.1
		z"/>
	<path id="XMLID_38_" class="st0" d="M355.2,417.2c-0.7,0.1-1.3,0.2-1.9,0.4c-0.6,0.2-1.1,0.4-1.7,0.8c-0.8,0.5-1.6,1.1-2.2,1.9
		c-0.7,0.8-1.3,1.6-1.9,2.5c-1.3,1.9-2.6,4-4,6.2s-2.9,4.7-4.5,7.4c-1.1,1.7-1.7,3-2,3.9c-0.2,0.9-0.4,2.5-0.4,4.8v6.1
		c0,0.7,0.1,1.4,0.4,1.9c0.3,0.5,0.8,1,1.5,1.3c0.3,0.1,1,0.3,2.1,0.6s1.9,0.4,2.4,0.4v2.4h-23.2v-2.4c0.5,0,1.3-0.1,2.4-0.2
		c1-0.1,1.7-0.3,2.2-0.4c0.7-0.3,1.2-0.7,1.5-1.3s0.4-1.2,0.4-1.9v-7.5c0-0.7,0-1.2,0-1.8c0-0.5-0.1-0.9-0.2-1.3
		c-0.1-0.4-0.4-0.9-0.7-1.5c-0.3-0.6-0.8-1.4-1.3-2.3c-1.5-2.7-3-5.3-4.4-7.7c-1.4-2.4-2.7-4.7-4-6.8c-0.7-1.1-1.3-2-2-2.7
		s-1.4-1.2-2.1-1.6c-0.5-0.3-1.2-0.5-1.9-0.7s-1.4-0.3-2-0.3v-2.4h23.8v2.4c-2.2,0.1-3.7,0.2-4.4,0.5c-0.8,0.3-1.1,0.6-1.1,1
		c0,0.2,0.1,0.7,0.4,1.3c0.3,0.7,0.8,1.7,1.5,3.1c0.7,1.3,1.6,3.1,2.9,5.4c1.3,2.3,2.8,5,4.6,8c3.7-6,6.3-10.3,7.6-12.7
		c1.4-2.4,2.1-3.9,2.1-4.4c0-0.7-0.4-1.2-1.2-1.6s-2.1-0.6-4-0.7v-2.4h15.4V417.2z"/>
	<path id="XMLID_40_" class="st0" d="M433.2,457.7h-22.5v-2.4c0.5,0,1.2-0.1,2.1-0.2c0.9-0.1,1.6-0.2,1.9-0.4
		c0.7-0.3,1.2-0.7,1.5-1.2c0.3-0.5,0.4-1.1,0.4-1.9V437h-17.8v14.4c0,0.7,0.1,1.3,0.4,1.8s0.8,1,1.5,1.3c0.4,0.2,1,0.3,1.9,0.5
		c0.9,0.2,1.6,0.3,2.2,0.3v2.4h-22.5v-2.4c0.5,0,1.2-0.1,2.2-0.2s1.6-0.2,2.1-0.4c0.7-0.3,1.2-0.7,1.5-1.2c0.3-0.5,0.4-1.2,0.4-1.9
		v-30.3c0-0.7-0.1-1.3-0.4-1.8c-0.2-0.5-0.7-0.9-1.5-1.3c-0.6-0.3-1.3-0.5-2.2-0.7c-0.9-0.2-1.6-0.3-2-0.4v-2.4h22.5v2.4
		c-0.6,0-1.3,0.1-2.2,0.3s-1.5,0.3-1.9,0.5c-0.8,0.3-1.3,0.7-1.5,1.3s-0.4,1.2-0.4,1.8v12.8h17.8v-12.5c0-0.7-0.1-1.3-0.4-1.8
		c-0.3-0.5-0.8-0.9-1.5-1.3c-0.5-0.2-1.2-0.5-2-0.7c-0.8-0.2-1.5-0.3-2-0.4v-2.4h22.5v2.4c-0.6,0-1.3,0.1-2.1,0.3s-1.5,0.3-2.1,0.5
		c-0.7,0.3-1.2,0.7-1.5,1.2c-0.3,0.6-0.4,1.2-0.4,1.8v30.3c0,0.7,0.1,1.3,0.4,1.8s0.8,0.9,1.5,1.3c0.5,0.2,1.1,0.4,2,0.5
		s1.6,0.3,2.2,0.3V457.7z"/>
	<path id="XMLID_42_" class="st0" d="M481.6,419.6c2.1,1.9,3.7,4.3,4.9,7c1.2,2.7,1.8,5.9,1.8,9.4c0,3.1-0.5,6.1-1.5,8.9
		c-1,2.8-2.5,5.2-4.4,7.3c-2,2.1-4.4,3.8-7.1,4.9c-2.7,1.2-5.9,1.8-9.7,1.8c-3,0-5.9-0.5-8.6-1.5c-2.7-1-5.1-2.5-7.1-4.5
		c-2-1.9-3.6-4.2-4.8-7c-1.2-2.7-1.8-5.8-1.8-9.1c0-3.5,0.6-6.7,1.7-9.5c1.2-2.8,2.8-5.3,4.8-7.3c2-2,4.4-3.5,7.2-4.6
		s5.7-1.6,8.8-1.6c3.1,0,6,0.5,8.7,1.6S479.7,417.8,481.6,419.6z M474.1,450.3c0.9-1.8,1.5-3.9,1.9-6.2c0.4-2.3,0.6-4.9,0.6-7.9
		c0-2.5-0.2-4.9-0.5-7.2c-0.3-2.3-0.9-4.4-1.7-6.3c-0.8-1.8-2-3.3-3.3-4.4c-1.4-1.1-3.1-1.7-5.2-1.7c-3.5,0-6.2,1.7-8.1,5.2
		s-2.8,8.3-2.8,14.6c0,2.7,0.2,5.2,0.6,7.6s1,4.5,1.9,6.2c0.9,1.8,2,3.2,3.3,4.2s3,1.5,5,1.5c1.9,0,3.6-0.5,5-1.5
		C472.2,453.4,473.3,452,474.1,450.3z"/>
	<path id="XMLID_45_" class="st0" d="M546.3,417.2c-0.6,0.1-1.4,0.2-2.4,0.4c-1.1,0.2-2,0.6-2.7,1.1c-0.7,0.5-1.3,1.4-1.6,2.7
		s-0.5,3.3-0.5,5.9v15.9c0,4.7-1.5,8.5-4.6,11.3c-3.1,2.9-7.2,4.3-12.2,4.3c-5.9,0-10.5-1.4-13.7-4.1s-4.9-6.6-4.9-11.5v-21.9
		c0-0.7-0.1-1.3-0.4-1.8s-0.8-1-1.5-1.4c-0.5-0.3-1.1-0.5-1.9-0.6c-0.7-0.2-1.3-0.3-1.8-0.3v-2.3h21.8v2.3c-0.6,0-1.3,0.1-1.9,0.2
		c-0.6,0.1-1.3,0.3-2,0.5c-0.7,0.2-1.2,0.6-1.5,1.2s-0.4,1.2-0.4,1.9v21.6c0,4.2,0.9,7.3,2.7,9.3c1.8,1.9,4.4,2.9,7.9,2.9
		c3.4,0,6.1-1.1,8-3.2c1.9-2.1,2.9-5.3,2.9-9.4v-14.5c0-2.6-0.2-4.5-0.5-5.8c-0.3-1.3-0.9-2.2-1.6-2.8c-0.5-0.4-1.4-0.8-2.7-1.2
		s-2.1-0.6-2.7-0.7v-2.4h18V417.2z"/>
	<path id="XMLID_47_" class="st0" d="M571.9,458.9c-2.5,0-4.9-0.3-7.1-1s-4.1-1.4-5.6-2.3l-2,2.1h-2.5l-0.4-15.5h2.5
		c0.6,1.5,1.3,3,2.2,4.7c0.9,1.6,1.9,3.1,3,4.4c1.2,1.4,2.5,2.4,4,3.3c1.5,0.8,3.2,1.3,5.2,1.3c2.7,0,4.7-0.7,6.1-2s2.1-3,2.1-5.1
		c0-1.7-0.6-3.1-1.8-4.2c-1.2-1.1-3.1-2.1-5.6-2.9c-1.6-0.5-3.1-1-4.5-1.5s-2.7-0.9-3.9-1.4c-2.8-1.1-4.9-2.8-6.2-4.9s-2-4.5-2-7.2
		c0-1.7,0.4-3.3,1.1-4.8s1.7-2.9,3.1-4.2c1.3-1.1,2.9-2.1,5-2.8c2-0.7,4.2-1.1,6.6-1.1c2.3,0,4.5,0.3,6.5,1c2,0.7,3.6,1.3,4.7,2
		l1.8-1.8h2.5l0.2,14.6h-2.5c-0.6-1.6-1.3-3.2-2.1-4.8s-1.6-3-2.5-4.1c-1-1.2-2.1-2.1-3.3-2.8c-1.3-0.7-2.7-1-4.4-1
		c-2.1,0-3.8,0.6-5.2,1.8s-2,2.8-2,4.6c0,1.7,0.6,3.1,1.7,4.2c1.2,1.1,3,2,5.4,2.9c1.4,0.5,2.9,1,4.4,1.5c1.5,0.5,2.8,1,4,1.5
		c2.8,1.1,5,2.7,6.5,4.7c1.5,2,2.2,4.4,2.2,7.4c0,1.9-0.4,3.6-1.3,5.4c-0.8,1.7-2,3.2-3.4,4.3c-1.6,1.3-3.4,2.2-5.4,2.9
		S574.6,458.9,571.9,458.9z"/>
	<path id="XMLID_49_" class="st0" d="M636.2,425.8H634c-0.6-1.6-1.5-3.3-2.9-4.9s-2.8-2.6-4.1-2.9c-0.6-0.1-1.4-0.2-2.4-0.3
		s-1.9,0-2.6,0h-6v16.5h4.3c1.1,0,2.1-0.1,2.9-0.4c0.9-0.3,1.7-0.8,2.4-1.5c0.4-0.5,0.9-1.3,1.4-2.4c0.5-1.2,0.8-2.2,0.9-3h2.2v17.9
		h-2.2c-0.1-0.8-0.4-1.9-0.9-3.2c-0.5-1.3-0.9-2.2-1.4-2.6c-0.6-0.7-1.4-1.2-2.3-1.5s-1.9-0.4-3-0.4h-4.3v12.3
		c0,1.3,0.1,2.3,0.3,3.1c0.2,0.8,0.5,1.3,1,1.7c0.5,0.4,1.2,0.6,2,0.8c0.8,0.1,2,0.2,3.5,0.2c0.7,0,1.5,0,2.5,0c1,0,1.8-0.1,2.5-0.2
		c0.8-0.1,1.6-0.3,2.3-0.5c0.7-0.2,1.2-0.5,1.6-0.9c0.9-1,2-2.5,3.2-4.5c1.2-2,1.9-3.5,2.3-4.5h2.1l-0.8,13.3h-39v-2.4
		c0.5,0,1.3-0.1,2.2-0.2c0.9-0.1,1.6-0.3,2-0.4c0.7-0.3,1.2-0.7,1.5-1.2s0.4-1.1,0.4-1.9v-30.2c0-0.7-0.1-1.3-0.3-1.8
		s-0.7-0.9-1.6-1.3c-0.5-0.2-1.2-0.5-2.1-0.7s-1.6-0.3-2.1-0.4v-2.4h36.9V425.8z"/>
</g>
<g id="XMLID_33_">
	<polygon id="XMLID_3_" class="st1" points="326.3,492.5 336.2,522.9 368.2,523 342.3,541.8 352.2,572.3 326.3,553.5 300.3,572.3 
		310.2,541.8 284.3,523 316.3,522.9 	"/>
	<polygon id="XMLID_4_" class="st1" points="216.3,492.5 226.2,522.9 258.2,523 232.3,541.8 242.2,572.3 216.3,553.5 190.3,572.3 
		200.2,541.8 174.3,523 206.3,522.9 	"/>
	<polygon id="XMLID_5_" class="st1" points="436.3,492.5 446.2,522.9 478.2,523 452.3,541.8 462.2,572.3 436.3,553.5 410.3,572.3 
		420.2,541.8 394.3,523 426.3,522.9 	"/>
</g>
<g id="XMLID_34_">
	<path id="XMLID_12_" class="st0" d="M409.8,140.6c-0.1,0-0.1,0-0.2,0c-0.2,0-0.4,0-0.7,0c-1.5,0.2-2.9,1.2-3.9,2.8V216H247v-72.4
		c-1-1.7-2.3-2.8-3.8-2.9c-0.1,0-0.1,0-0.2,0c-0.1,0-0.5,0-0.6,0c-1.6,0.2-3.3,1.3-4.3,3v72.9c0,4.2,4,8.5,8.2,8.5h160.2
		c4.2,0,7.6-4.3,7.6-8.5v-72.8C413,141.9,411.4,140.8,409.8,140.6z"/>
	<path id="XMLID_7_" class="st0" d="M440.1,138.4L331.7,30c-1.4-1.4-3.4-2.2-5.4-2.2c-2,0-4,0.8-5.4,2.2L212.4,138.5
		c-0.4,2,0,3.7,1.1,4.9c1.2,1.2,3.1,1.5,5.2,1.1L326.3,36.9l107.7,107.7c1.8,0.3,3.5,0.1,4.7-0.9c0.1-0.1,0.2-0.2,0.3-0.3
		c0.1-0.1,0.2-0.2,0.2-0.3C440.3,142,440.5,140.3,440.1,138.4z"/>
</g>
</svg>
