<?xml version="1.0" encoding="utf-8"?>
<!-- Generator: Adobe Illustrator 19.0.0, SVG Export Plug-In . SVG Version: 6.00 Build 0)  -->
<svg version="1.1" id="Layer_1" xmlns="http://www.w3.org/2000/svg" xmlns:xlink="http://www.w3.org/1999/xlink" x="0px" y="0px"
	 viewBox="0 0 650 600" style="enable-background:new 0 0 650 600;" xml:space="preserve">
<style type="text/css">
	.st0{fill:#00203F;}
	.st1{font-family:'Georgia-Bold';}
	.st2{font-size:130px;}
	.st7{font-size:60px;}
	.st13{fill:#00203F;stroke:#00203F;stroke-miterlimit:10;}
</style>
<text id="XMLID_2_" transform="matrix(1 0 0 1.03 71.6158 367.6982)"><tspan x="0" y="0" class="st0 st1 st2 st3">J</tspan><tspan x="65.29" y="0" class="st0 st1 st2 st4">U</tspan><tspan x="188.03" y="0" class="st0 st1 st2 st3">L</tspan><tspan x="281.13" y="0" class="st0 st1 st2 st5">I</tspan><tspan x="346.33" y="0" class="st0 st1 st2 st6">J</tspan><tspan x="405.1" y="0" class="st0 st1 st2 st4">A</tspan><tspan x="-47.91" y="87.38" class="st0 st1 st7 st8">H</tspan><tspan x="8.88" y="87.38" class="st0 st1 st7 st8">O</tspan><tspan x="64.8" y="87.38" class="st0 st1 st7 st9">L</tspan><tspan x="107.89" y="87.38" class="st0 st1 st7 st10">I</tspan><tspan x="138.45" y="87.38" class="st0 st1 st7">D</tspan><tspan x="190.54" y="87.38" class="st0 st1 st7 st11">A</tspan><tspan x="239.75" y="87.38" class="st0 st1 st7 st9">Y </tspan><tspan x="312.15" y="87.38" class="st0 st1 st7 st8">H</tspan><tspan x="368.94" y="87.38" class="st0 st1 st7 st8">O</tspan><tspan x="424.52" y="87.38" class="st0 st1 st7 st12">U</tspan><tspan x="479.06" y="87.38" class="st0 st1 st7 st12">S</tspan><tspan x="517.18" y="87.38" class="st0 st1 st7 st9">E</tspan></text>
<g id="XMLID_33_">
	<polygon id="XMLID_1_" class="st13" points="325,492.48 334.95,522.89 366.95,522.95 341.09,541.81 350.92,572.26 325,553.5 
		299.08,572.26 308.91,541.81 283.05,522.95 315.05,522.89 	"/>
	<polygon id="XMLID_3_" class="st13" points="215,492.48 224.95,522.89 256.95,522.95 231.09,541.81 240.92,572.26 215,553.5 
		189.08,572.26 198.91,541.81 173.05,522.95 205.05,522.89 	"/>
	<polygon id="XMLID_4_" class="st13" points="435,492.48 444.95,522.89 476.95,522.95 451.09,541.81 460.92,572.26 435,553.5 
		409.08,572.26 418.91,541.81 393.05,522.95 425.05,522.89 	"/>
</g>
<g id="XMLID_34_">
	<path id="XMLID_12_" class="st0" d="M405.78,140.57c-0.08,0-0.23-0.01-0.3-0.01c-0.2,0-0.47,0.01-0.66,0.02
		c-1.44,0.18-2.82,1.18-3.82,2.69V213H249v-69.59c-1-1.63-2.42-2.7-3.95-2.83c-0.1,0-0.19-0.01-0.29-0.01
		c-0.13,0-0.46,0.01-0.59,0.02c-1.54,0.15-3.17,1.24-4.17,2.9v70.34c0,4.05,3.7,8.18,7.75,8.18h154.6c4.05,0,7.65-4.13,7.65-8.18
		v-70.23C409,141.86,407.36,140.72,405.78,140.57z"/>
	<path id="XMLID_7_" class="st0" d="M434.85,138.39L330.27,33.81c-1.39-1.39-3.24-2.16-5.22-2.16c-1.97,0-3.83,0.77-5.22,2.16
		L215.1,138.55c-0.34,1.88-0.01,3.6,1.09,4.7c1.17,1.17,3.03,1.47,5.05,1.02l103.8-103.8l103.97,103.97
		c1.77,0.34,3.38,0.09,4.5-0.83c0.1-0.09,0.2-0.18,0.29-0.27c0.08-0.08,0.15-0.16,0.22-0.24C435,141.94,435.24,140.24,434.85,138.39
		z"/>
</g>
</svg>
